<svg width="171" height="69" viewBox="0 0 171 69" fill="none" xmlns="http://www.w3.org/2000/svg">
<mask id="mask0_1_858" style="mask-type:luminance" maskUnits="userSpaceOnUse" x="3" y="14" width="165" height="41">
<path d="M167.255 14.6434H3.42505V54.4747H167.255V14.6434Z" fill="white"/>
</mask>
<g mask="url(#mask0_1_858)">
<path d="M3.42505 21.811H24.3134V36.6581H28.8187C28.8187 36.3509 28.8187 36.1462 28.9211 35.839C29.0235 34.5079 29.3307 33.2791 29.9451 32.1528C30.969 30.2073 32.5049 29.1834 34.6552 29.3882C35.4743 29.4906 36.1911 29.7977 36.6007 30.6169C37.215 31.7432 37.4198 32.9719 37.4198 34.2007C37.4198 37.8869 37.4198 41.4706 37.4198 45.1568C37.4198 45.3616 37.4198 45.5664 37.4198 45.7712H42.2324C42.2324 45.6688 42.2324 45.5664 42.2324 45.464C42.2324 41.4706 42.2324 37.4773 42.2324 33.4839C42.2324 32.3576 42.0276 31.3336 41.8228 30.2073C41.4132 28.2618 40.4917 26.6235 38.8533 25.5996C37.5222 24.7804 35.9863 24.5756 34.4504 24.678C32.1977 24.8828 30.3547 25.702 29.0235 27.6475C28.9211 27.7499 28.9211 27.7499 28.7164 27.8523V16.9985H3.42505V21.811ZM97.0131 14.7458C96.9107 14.7458 96.8083 14.7458 96.8083 14.7458C95.17 14.7458 93.4293 14.7458 91.791 14.7458C91.6886 14.7458 91.4838 14.9506 91.3814 15.1554C90.9719 16.1793 90.6647 17.2033 90.2551 18.2272C86.9785 27.0331 83.8043 35.839 80.5277 44.6449C80.3229 45.0544 80.2205 45.5664 80.0157 46.0784C81.654 46.0784 83.2923 46.0784 84.8282 46.0784C84.9306 46.0784 85.1354 45.8736 85.2378 45.6688C86.057 43.5185 86.8761 41.4706 87.5929 39.3204C88.6168 36.5557 89.7431 33.6887 90.7671 30.9241C92.4054 26.6235 94.0437 22.323 95.682 18.0224C96.194 16.8961 96.6035 15.8722 97.0131 14.7458ZM65.6806 14.6434C65.9877 15.4626 66.2949 16.1793 66.6021 16.9985C69.162 23.5517 71.7218 30.1049 74.2816 36.6581C74.384 36.8629 74.4864 36.9653 74.7936 36.9653C76.0223 36.9653 77.1487 36.9653 78.3774 36.9653C78.787 36.9653 79.1966 36.9653 79.7085 36.9653C77.4559 30.9241 75.2032 25.0876 73.0529 19.1488C73.3601 19.1488 73.4625 19.1488 73.6673 19.1488C76.1247 19.1488 78.6846 19.1488 81.1421 19.2512C81.5516 19.2512 81.654 19.1488 81.654 18.7392C81.654 17.6129 81.654 16.4865 81.654 15.3602C81.654 14.8482 81.5516 14.7458 81.0397 14.7458C76.1247 14.7458 71.2098 14.7458 66.1925 14.7458C66.0901 14.6434 65.9877 14.6434 65.6806 14.6434ZM141.657 36.9653H146.572V25.19H141.862V27.9546C138.073 22.6302 130.189 24.5756 128.141 29.3882C129.472 30.3097 130.701 31.2313 132.032 32.0504C133.363 29.4906 136.025 28.8762 138.175 29.5929C139.302 30.0025 140.223 30.7193 140.94 31.8456C141.964 33.4839 142.066 35.1222 141.657 36.9653ZM11.4118 25.702C11.4118 25.9068 11.4118 26.0092 11.4118 26.2139C11.4118 32.5624 11.4118 39.0132 11.4118 45.3616C11.4118 45.7712 11.5142 45.8736 11.9237 45.8736C13.1525 45.8736 14.3812 45.8736 15.6099 45.8736C16.0195 45.8736 16.2243 45.6688 16.2243 45.1568C16.2243 38.9108 16.2243 32.6648 16.2243 26.3163C16.2243 26.2139 16.2243 26.0092 16.2243 25.9068C16.1219 25.8044 16.0195 25.5996 15.9171 25.5996C14.3812 25.702 12.9477 25.702 11.4118 25.702ZM119.13 28.2618L119.028 28.1594C119.028 27.9546 119.028 27.8522 119.028 27.6475C119.028 27.0331 119.028 26.3163 119.028 25.702C119.028 25.19 118.925 25.0876 118.413 25.0876C117.185 25.0876 115.956 25.0876 114.727 25.0876C114.318 25.0876 114.113 25.19 114.113 25.702C114.113 29.2858 114.113 32.7672 114.113 36.3509C114.113 36.5557 114.113 36.6581 114.113 36.9653C115.649 36.9653 117.082 36.9653 118.618 36.9653C118.925 36.9653 118.925 36.7605 118.925 36.4533C119.028 35.5318 119.028 34.5079 119.13 33.5863C119.437 31.8456 120.359 30.7193 121.997 30.3097C123.226 30.0025 124.455 29.9001 125.683 30.1049C126.093 30.1049 126.195 30.0025 126.298 29.5929C126.298 28.4666 126.4 27.4427 126.4 26.3163C126.4 25.9068 126.4 25.3948 126.4 24.9852C123.328 24.5756 120.769 25.19 119.13 28.2618ZM97.0131 26.1116C97.0131 26.2139 97.0131 26.2139 97.0131 26.3163C97.7299 27.3403 98.3442 28.4666 99.061 29.4906C99.1634 29.5929 99.3682 29.5929 99.4706 29.5929C100.495 29.081 101.621 28.9786 102.747 29.1834C104.795 29.4906 106.126 31.3336 106.229 33.5863H101.621V36.9653C101.723 36.9653 101.723 36.9653 101.723 36.9653C104.59 36.9653 107.457 36.9653 110.427 37.0677C110.734 37.0677 110.836 36.8629 110.836 36.5557C110.836 35.5318 110.836 34.5079 110.734 33.4839C110.529 31.3336 109.812 29.3882 108.379 27.7499C106.945 26.1116 105.102 25.3948 103.054 25.0876C100.904 24.7804 98.8562 25.0876 97.0131 26.1116ZM51.4478 29.5929C52.5741 28.9786 53.7005 28.8762 54.8268 28.9786C56.7723 29.081 58.6154 31.2312 58.4106 33.3815H53.9053V36.8629C54.11 36.8629 54.3148 36.8629 54.5196 36.8629C56.6699 36.8629 58.8202 36.8629 61.0728 36.8629C61.5848 36.8629 62.0968 36.8629 62.7111 36.9653C63.1207 36.9653 63.2231 36.7605 63.2231 36.3509C63.1207 35.1222 63.2231 33.8935 63.0183 32.6648C62.5064 29.6953 61.1752 27.3403 58.6154 25.9068C56.7723 24.8828 54.8268 24.678 52.7789 24.8828C51.5502 24.9852 50.4239 25.3948 49.2975 26.1116C50.0143 27.2379 50.731 28.4666 51.4478 29.5929ZM167.255 36.9653C167.358 35.327 167.358 33.7911 166.948 32.2552C166.231 29.1834 164.593 26.9307 161.828 25.702C159.883 24.8828 157.835 24.7804 155.89 25.2924C155.07 25.4972 154.251 25.9068 153.33 26.2139C154.149 27.4427 154.866 28.6714 155.685 29.7977C159.678 28.057 162.545 30.1049 162.75 33.5863H158.04V37.0677H167.255V36.9653ZM44.5874 36.8629C44.7922 37.8869 44.997 38.9108 45.3042 39.8323C46.1233 42.4946 47.7616 44.4401 50.2191 45.464C51.9598 46.1808 53.8029 46.3856 55.5436 46.1808C57.6938 45.976 59.7417 45.1568 61.2776 43.3137C61.892 42.597 62.404 41.6754 62.7111 40.7539C61.2776 40.1395 59.9465 39.5252 58.6154 38.9108C58.513 39.1156 58.4106 39.3204 58.4106 39.5252C58.001 40.5491 57.2843 41.2659 56.3627 41.573C55.3388 41.9826 54.3148 41.8802 53.3933 41.7778C52.4717 41.6754 51.5502 41.2659 50.8334 40.5491C49.9119 39.6276 49.5023 38.5012 49.2975 37.1701C49.2975 37.0677 49.0927 36.7605 48.9904 36.7605C47.5568 36.8629 46.1233 36.8629 44.5874 36.8629ZM92.303 36.9653C92.5078 37.7845 92.5078 38.6036 92.7126 39.3204C93.4293 41.9826 94.7604 44.1329 97.2179 45.3616C100.187 46.7951 103.157 46.8975 106.229 45.6688C108.174 44.8496 109.505 43.2113 110.427 41.0611C109.096 40.4467 107.764 39.8323 106.433 39.1156C106.331 39.3204 106.331 39.4228 106.229 39.6276C105.717 40.9587 104.795 41.7778 103.464 42.085C102.85 42.1874 102.338 42.1874 101.723 42.1874C100.392 42.085 99.2658 41.6754 98.3442 40.6515C97.6275 39.8323 97.2179 38.8084 97.0131 37.6821C97.0131 37.4773 96.8083 37.2725 96.7059 37.2725C95.17 36.9653 93.7365 36.9653 92.303 36.9653ZM162.75 39.1156C162.648 39.4228 162.545 39.7299 162.34 39.9347C161.828 40.9587 161.009 41.6754 159.985 41.9826C159.064 42.1874 158.142 42.2898 157.221 42.085C156.094 41.8802 155.07 41.2659 154.251 40.1395C153.739 39.3204 153.33 38.5012 153.227 37.4773C153.227 37.0677 153.023 36.9653 152.715 36.9653C151.589 36.9653 150.463 36.9653 149.336 36.9653C149.132 36.9653 148.927 36.9653 148.62 36.9653C148.722 37.6821 148.824 38.2964 148.927 38.9108C149.541 41.4706 150.668 43.5185 152.818 44.952C154.354 45.976 156.094 46.3856 157.938 46.4879C159.473 46.5903 161.009 46.2832 162.443 45.6688C164.491 44.7473 165.822 43.2113 166.641 40.9587C165.412 40.3443 164.184 39.7299 162.75 39.1156ZM128.141 46.7951C128.141 48.2286 128.55 49.5598 129.165 50.6861C130.496 52.9388 132.646 53.8603 135.001 54.2699C136.435 54.5771 137.868 54.4747 139.302 54.2699C141.554 53.8603 143.398 52.8364 144.831 50.8909C145.445 50.0717 145.855 49.1502 146.367 48.2286C144.831 47.6143 143.398 47.1023 141.964 46.5903C141.657 47.8191 141.043 48.7406 140.223 49.4574C139.097 50.2765 137.766 50.4813 136.537 50.3789C135.616 50.2765 134.694 50.0717 133.977 49.355C133.261 48.7406 132.953 47.8191 132.851 46.8975L128.141 46.7951ZM140.838 43.8257C140.223 42.8018 139.711 41.8802 139.199 40.9587C139.097 40.7539 138.892 40.6515 138.687 40.7539C137.766 41.0611 136.742 41.1635 135.718 40.8563C133.977 40.4467 132.953 39.218 132.441 37.3749C132.441 37.1701 132.237 36.9653 132.134 36.9653C130.701 36.9653 129.267 36.9653 127.731 36.9653C127.834 39.5252 129.472 43.0066 132.237 44.5425C135.104 46.1808 138.995 45.5664 140.838 43.8257Z" fill="#010101"/>
<path d="M3.42505 21.811V16.9985H28.7164V27.9546C28.9211 27.8522 28.9211 27.7498 29.0235 27.7498C30.3547 25.8044 32.3001 24.9852 34.4504 24.7804C35.9863 24.678 37.5222 24.8828 38.8533 25.702C40.4917 26.7259 41.4132 28.3642 41.8228 30.3097C42.0276 31.3336 42.2324 32.46 42.2324 33.5863C42.2324 37.5797 42.2324 41.573 42.2324 45.5664C42.2324 45.6688 42.2324 45.7712 42.2324 45.8736H37.4198C37.4198 45.6688 37.4198 45.464 37.4198 45.2592C37.4198 41.573 37.4198 37.9892 37.4198 34.303C37.4198 33.0743 37.215 31.8456 36.6007 30.7193C36.0887 29.9001 35.4743 29.5929 34.6552 29.4905C32.5049 29.2857 30.969 30.3097 29.9451 32.2552C29.3307 33.3815 29.0235 34.6102 28.9211 35.9414C28.9211 36.2485 28.9211 36.4533 28.8187 36.7605H24.3134V21.811H3.42505Z" fill="#010101"/>
<path d="M97.0132 14.7458C96.6036 15.8722 96.194 16.8961 95.7844 17.92C94.1461 22.2206 92.5078 26.5211 90.8695 30.8217C89.8456 33.5863 88.7193 36.4533 87.6953 39.218C86.8762 41.3682 86.057 43.4161 85.3403 45.5664C85.2379 45.7712 85.0331 45.976 84.9307 45.976C83.3948 45.976 81.7565 45.976 80.1182 45.976C80.323 45.464 80.4253 44.952 80.6301 44.5425C83.9067 35.7366 87.081 26.9307 90.3576 18.1248C90.7671 17.1009 91.0743 16.0769 91.4839 15.053C91.5863 14.8482 91.6887 14.6434 91.8935 14.6434C93.5318 14.6434 95.2725 14.6434 96.9108 14.6434C96.8084 14.6434 96.9108 14.7458 97.0132 14.7458Z" fill="#010101"/>
<path d="M65.6807 14.6434C65.8855 14.6434 65.9878 14.6434 66.1926 14.6434C71.1075 14.6434 76.0225 14.6434 81.0398 14.6434C81.5517 14.6434 81.6541 14.7458 81.6541 15.2578C81.6541 16.3841 81.6541 17.5105 81.6541 18.6368C81.6541 19.0464 81.5517 19.1488 81.1422 19.1488C78.6847 19.1488 76.1248 19.1488 73.6674 19.0464C73.4626 19.0464 73.3602 19.0464 73.053 19.0464C75.3057 24.9852 77.456 30.8217 79.7086 36.7605C79.1967 36.7605 78.7871 36.7605 78.3775 36.7605C77.1488 36.7605 76.0224 36.7605 74.7937 36.7605C74.5889 36.7605 74.3841 36.6581 74.2818 36.4533C71.7219 29.9001 69.1621 23.3469 66.6022 16.7937C66.3974 16.1793 66.0902 15.3602 65.6807 14.6434Z" fill="#010101"/>
<path d="M141.657 36.9653C142.066 35.1222 141.862 33.4839 141.042 31.948C140.428 30.8217 139.506 30.1049 138.278 29.6954C136.127 28.9786 133.465 29.4906 132.134 32.1528C130.803 31.2313 129.472 30.3097 128.243 29.4906C130.189 24.6781 138.073 22.7326 141.964 28.0571V25.2924H146.674V37.0677L141.657 36.9653Z" fill="#010101"/>
<path d="M11.4119 25.702C12.9478 25.702 14.3813 25.702 15.9172 25.702C16.0196 25.702 16.122 25.9068 16.2244 26.0091C16.2244 26.1115 16.2244 26.2139 16.2244 26.4187C16.2244 32.6648 16.2244 38.9108 16.2244 45.2592C16.2244 45.6688 16.0196 45.976 15.61 45.976C14.3813 45.976 13.1526 45.976 11.9238 45.976C11.5143 45.976 11.4119 45.8736 11.4119 45.464C11.4119 39.1156 11.4119 32.6648 11.4119 26.3163C11.4119 26.0091 11.4119 25.9068 11.4119 25.702Z" fill="#010101"/>
<path d="M119.13 28.2618C120.768 25.19 123.328 24.5756 126.4 24.7804C126.4 25.2924 126.4 25.702 126.4 26.1116C126.4 27.2379 126.298 28.2618 126.298 29.3882C126.298 29.9001 126.195 30.0025 125.683 29.9001C124.455 29.7977 123.226 29.7977 121.997 30.1049C120.359 30.5145 119.437 31.7432 119.13 33.3815C118.925 34.3031 118.925 35.327 118.925 36.2486C118.925 36.4533 118.925 36.7605 118.618 36.7605C117.185 36.7605 115.649 36.7605 114.113 36.7605C114.113 36.5557 114.113 36.3509 114.113 36.1462C114.113 32.5624 114.113 29.081 114.113 25.4972C114.113 24.9852 114.215 24.8828 114.727 24.8828C115.956 24.8828 117.185 24.8828 118.413 24.8828C118.823 24.8828 119.028 24.9852 119.028 25.4972C119.028 26.1116 119.028 26.8283 119.028 27.4427C119.028 27.6475 119.028 27.7499 119.028 27.9546C119.028 28.1594 119.13 28.2618 119.13 28.2618Z" fill="#010101"/>
<path d="M97.0132 26.1116C98.9587 24.9852 100.904 24.678 103.054 24.9852C105.102 25.19 106.945 26.0092 108.379 27.6475C109.812 29.1834 110.529 31.1289 110.734 33.3815C110.836 34.4055 110.836 35.4294 110.836 36.4533C110.836 36.7605 110.734 36.9653 110.427 36.9653C107.56 36.9653 104.693 36.8629 101.723 36.8629H101.621V33.4839H106.229C106.126 31.3336 104.795 29.3882 102.747 29.081C101.621 28.8762 100.495 29.081 99.4706 29.4906C99.3682 29.593 99.0611 29.4906 99.0611 29.3882C98.3443 28.3642 97.7299 27.2379 97.0132 26.214C97.0132 26.214 97.0132 26.214 97.0132 26.1116Z" fill="#010101"/>
<path d="M51.4477 29.5929C50.6286 28.3642 49.9118 27.2379 49.1951 26.1116C50.3214 25.3948 51.4477 24.9852 52.6765 24.8828C54.7243 24.678 56.6698 24.8828 58.5129 25.9068C61.0728 27.3403 62.5063 29.6953 62.9159 32.6648C63.1206 33.8935 63.0182 35.1222 63.1206 36.3509C63.1206 36.7605 63.0182 36.9653 62.6087 36.9653C62.0967 36.9653 61.5847 36.8629 60.9704 36.8629C58.8201 36.8629 56.6698 36.8629 54.4172 36.8629C54.2124 36.8629 54.11 36.8629 53.8028 36.8629V33.3815H58.3081C58.4105 31.2312 56.6698 29.081 54.7243 28.9786C53.7004 28.8762 52.5741 28.9786 51.4477 29.5929Z" fill="#010101"/>
<path d="M167.255 36.9653H158.04V33.4839H162.648C162.443 30.0025 159.576 27.9546 155.582 29.6953C154.866 28.569 154.046 27.4427 153.227 26.1115C154.149 25.8044 154.968 25.3948 155.787 25.19C157.835 24.7804 159.781 24.7804 161.726 25.5996C164.593 26.7259 166.231 28.9786 166.846 32.1528C167.255 33.7911 167.358 35.327 167.255 36.9653Z" fill="#010101"/>
<path d="M44.5874 36.8629C46.1233 36.8629 47.5568 36.8629 48.9903 36.8629C49.0927 36.8629 49.1951 37.0677 49.2975 37.2725C49.5023 38.6036 50.0143 39.7299 50.8334 40.6515C51.5502 41.3682 52.3693 41.7778 53.3933 41.8802C54.4172 41.9826 55.4412 42.085 56.3627 41.6754C57.2843 41.3682 58.001 40.5491 58.4106 39.6276C58.513 39.4228 58.6154 39.218 58.6154 39.0132C59.9465 39.6276 61.2776 40.2419 62.7111 40.8563C62.4039 41.8802 61.892 42.6994 61.2776 43.4161C59.7417 45.2592 57.7962 46.0784 55.5436 46.2832C53.7005 46.4879 51.8574 46.2832 50.2191 45.5664C47.7616 44.4401 46.1233 42.597 45.3042 39.9347C44.8946 38.9108 44.7922 37.8869 44.5874 36.8629Z" fill="#010101"/>
<path d="M92.2007 36.9653C93.7366 36.9653 95.0677 36.9653 96.5012 36.9653C96.6036 36.9653 96.8084 37.2725 96.8084 37.3749C97.0132 38.5012 97.4228 39.5252 98.1395 40.3443C99.0611 41.3683 100.187 41.7778 101.519 41.8802C102.133 41.8802 102.645 41.8802 103.259 41.7778C104.59 41.5731 105.512 40.7539 106.024 39.3204C106.126 39.218 106.126 39.0132 106.229 38.8084C107.56 39.4228 108.891 40.0371 110.222 40.7539C109.403 42.9042 108.072 44.5425 106.024 45.3616C103.054 46.5904 99.9826 46.5904 97.0132 45.0545C94.5557 43.8257 93.2246 41.6755 92.5079 39.0132C92.5079 38.5012 92.4055 37.7845 92.2007 36.9653Z" fill="#010101"/>
<path d="M162.75 39.1156C164.081 39.7299 165.412 40.3443 166.744 41.0611C165.822 43.2113 164.491 44.8496 162.545 45.7712C161.112 46.3855 159.576 46.6927 158.04 46.5903C156.197 46.4879 154.456 46.1807 152.92 45.0544C150.872 43.6209 149.644 41.573 149.029 39.0132C148.927 38.3988 148.825 37.7844 148.722 37.0677C149.029 37.0677 149.234 37.0677 149.439 37.0677C150.565 37.0677 151.692 37.0677 152.818 37.0677C153.125 37.0677 153.33 37.1701 153.33 37.5797C153.432 38.5012 153.739 39.4227 154.354 40.2419C155.071 41.3682 156.095 41.8802 157.323 42.1874C158.245 42.3922 159.166 42.3922 160.088 42.085C161.214 41.7778 161.931 41.1634 162.443 40.0371C162.545 39.6275 162.648 39.4227 162.75 39.1156Z" fill="#010101"/>
<path d="M128.141 46.7952H132.646C132.851 47.7167 133.158 48.5359 133.773 49.2526C134.489 49.9694 135.411 50.1742 136.332 50.2766C137.664 50.3789 138.892 50.2766 140.019 49.355C140.94 48.6382 141.452 47.7167 141.759 46.488C143.193 46.9999 144.626 47.5119 146.162 48.1263C145.65 49.0478 145.241 49.9694 144.626 50.7885C143.193 52.734 141.35 53.7579 139.097 54.1675C137.664 54.3723 136.23 54.4747 134.796 54.1675C132.441 53.7579 130.291 52.8364 128.96 50.5837C128.55 49.4574 128.141 48.2287 128.141 46.7952Z" fill="#010101"/>
<path d="M140.838 43.8257C138.995 45.5664 135.104 46.1808 132.237 44.5425C129.472 43.0066 127.834 39.4228 127.731 36.9653C129.165 36.9653 130.598 36.9653 132.134 36.9653C132.237 36.9653 132.441 37.1701 132.441 37.3749C132.953 39.1156 133.977 40.3443 135.718 40.8563C136.742 41.1635 137.663 41.0611 138.687 40.7539C138.995 40.6515 139.097 40.7539 139.199 40.9587C139.711 41.8802 140.223 42.8018 140.838 43.8257Z" fill="#010101"/>
</g>
</svg>
