<svg width="171" height="47" viewBox="0 0 171 47" fill="none" xmlns="http://www.w3.org/2000/svg">
<g clip-path="url(#clip0_1_913)">
<g clip-path="url(#clip1_1_913)">
<path d="M3.78929 3.14469H-0.520874V2.65796H14.5779V3.14469H10.7899L21.5784 32.5782C24.952 22.144 27.5654 14.431 31.0824 3.14469H27.3358V2.65796H35.3079V3.14469H31.6775L18.5653 44.2102L3.78929 3.14469Z" fill="black"/>
<path d="M53.0861 2.07334C43.307 2.14358 35.3079 13.0627 35.3079 22.5866C35.3079 32.6091 41.1716 44.8347 53.0861 44.795C65.0007 44.7554 71.1847 31.5934 71.1847 22.5866C71.1847 12.638 62.8654 2.00311 53.0861 2.07334ZM53.0861 2.44691C61.2709 2.44691 63.479 11.5282 63.479 22.5866C63.479 37.178 60.8155 44.3767 53.0861 44.363C45.3568 44.3493 42.8423 38.4575 42.8423 22.5866C42.8423 12.6448 44.9014 2.44691 53.0861 2.44691Z" fill="black"/>
<path d="M71.185 22.9449C71.1412 12.1081 79.7744 2.50883 87.0826 2.03257C89.7224 1.84468 93.1156 3.05913 95.0967 3.92427C96.5352 4.55249 99.4717 3.64317 99.9932 1.97491H100.277V16.7367H99.9932C99.9932 16.1073 97.272 2.40371 87.0826 2.40371C79.5564 2.40371 78.8293 15.6988 78.8293 22.9449C78.8293 30.1911 79.0486 44.536 87.8313 44.536C92.0859 44.536 95.2352 42.6659 96.0516 38.8828V27.3796H92.4804V26.8896H106.323V27.3796H102.909V44.1972H102.631C102.631 44.1972 102.076 41.7706 99.2591 41.7787C95.6592 41.789 92.2643 44.9311 88.1258 44.8928C77.1813 44.7917 71.2289 33.7818 71.185 22.9449Z" fill="black"/>
<path d="M110.494 33.9638L110.426 2.90488H106.323V2.43964H121.438V2.90488H117.338L117.429 36.9592C118.336 40.8587 119.95 43.8177 125.464 43.8617C130.977 43.9058 134.725 40.5851 136.118 36.047V2.90488H131.425L131.425 2.45333H169.838L169.919 17.3628H169.549C168.837 7.73633 165.139 4.0982 158.673 3.03683C156.447 2.67161 154.114 2.94235 151.162 2.91931V21.9478C153.732 22.1472 156.47 21.984 158.314 20.3924C159.992 18.9451 160.466 15.601 160.589 14.2425H160.914V30.8104H160.562C160.46 30.8104 160.326 26.6527 158.314 24.6802C156.29 22.6947 153.711 22.2066 151.162 22.6796V43.0061C154.762 43.0061 157.632 43.3124 160.123 42.6262C167.696 40.5402 170.362 34.1209 170.342 27.6826H170.763V43.4873H140.633V43.0061H144.04V2.90488H136.679V36.047C135.845 39.2179 132.796 44.464 124.981 44.4283C117.716 44.395 110.51 41.1042 110.494 33.9638Z" fill="black"/>
</g>
</g>
<defs>
<clipPath id="clip0_1_913">
<rect width="170" height="45.33" fill="white" transform="translate(0.121094 0.769043)"/>
</clipPath>
<clipPath id="clip1_1_913">
<rect width="170" height="45.33" fill="white" transform="translate(0.121094 0.769043)"/>
</clipPath>
</defs>
</svg>
